<svg width="31" height="31" viewBox="0 0 31 31" fill="none" xmlns="http://www.w3.org/2000/svg">
<path d="M22.216 8.39649C22.0936 8.21397 22.0281 7.99924 22.0277 7.77947C22.0272 7.48485 22.1438 7.20209 22.3517 6.99338C22.5597 6.78467 22.842 6.66709 23.1366 6.66651C23.3564 6.66607 23.5713 6.73081 23.7543 6.85255C23.9373 6.9743 24.08 7.14756 24.1645 7.35045C24.249 7.55333 24.2715 7.77671 24.229 7.99234C24.1865 8.20797 24.0811 8.40616 23.9259 8.56185C23.7708 8.71753 23.573 8.82372 23.3575 8.86699C23.1421 8.91025 22.9186 8.88864 22.7154 8.80489C22.5122 8.72114 22.3384 8.57902 22.216 8.39649Z" fill="white"/>
<path d="M22.0225 1.11133H8.69968C4.40081 1.11133 0.916626 4.59613 0.916626 8.89438V22.2172C0.916626 26.516 4.40143 30.0002 8.70029 30.0002H22.0218C26.3207 30.0002 29.8055 26.5154 29.8055 22.2165V8.89438C29.8055 4.59551 26.3213 1.11133 22.0225 1.11133Z" stroke="white" stroke-width="1.11111" stroke-miterlimit="10"/>
<path d="M15.361 22.222C19.0429 22.222 22.0277 19.2372 22.0277 15.5553C22.0277 11.8734 19.0429 8.88867 15.361 8.88867C11.6791 8.88867 8.69434 11.8734 8.69434 15.5553C8.69434 19.2372 11.6791 22.222 15.361 22.222Z" stroke="white" stroke-width="1.11111" stroke-miterlimit="10"/>
</svg>
