<svg width="419" height="410" viewBox="0 0 419 410" fill="none" xmlns="http://www.w3.org/2000/svg">
<g filter="url(#filter0_f_272_36)">
<path d="M88 128C88 105.909 105.909 88 128 88H291C313.091 88 331 105.909 331 128V281.782C331 303.873 313.091 321.782 291 321.782H128C105.909 321.782 88 303.873 88 281.782V128Z" fill="#9D3D67" fill-opacity="0.5"/>
</g>
<path d="M142.5 171.25V167.875C141.605 167.875 140.746 168.231 140.114 168.864C139.481 169.496 139.125 170.355 139.125 171.25H142.5ZM216.75 171.25H220.125C220.125 170.355 219.769 169.496 219.136 168.864C218.504 168.231 217.645 167.875 216.75 167.875V171.25ZM216.75 184.75V181.375C215.855 181.375 214.996 181.731 214.364 182.364C213.731 182.996 213.375 183.855 213.375 184.75H216.75ZM142.5 174.625H216.75V167.875H142.5V174.625ZM213.375 171.25V252.25H220.125V171.25H213.375ZM145.875 238.75V171.25H139.125V238.75H145.875ZM216.75 188.125H250.5V181.375H216.75V188.125ZM274.125 211.75V238.75H280.875V211.75H274.125ZM220.125 252.25V184.75H213.375V252.25H220.125ZM257.655 259.405C255.757 261.301 253.183 262.366 250.5 262.366C247.817 262.366 245.243 261.301 243.345 259.405L238.566 264.184C240.133 265.751 241.994 266.995 244.041 267.843C246.089 268.692 248.284 269.128 250.5 269.128C252.716 269.128 254.911 268.692 256.959 267.843C259.006 266.995 260.867 265.751 262.434 264.184L257.662 259.412L257.655 259.405ZM243.345 245.095C245.243 243.199 247.817 242.134 250.5 242.134C253.183 242.134 255.757 243.199 257.655 245.095L262.434 240.316C260.867 238.749 259.006 237.505 256.959 236.657C254.911 235.808 252.716 235.372 250.5 235.372C248.284 235.372 246.089 235.808 244.041 236.657C241.994 237.505 240.133 238.749 238.566 240.316L243.338 245.088L243.345 245.095ZM176.655 259.405C174.757 261.301 172.183 262.366 169.5 262.366C166.817 262.366 164.243 261.301 162.345 259.405L157.566 264.184C159.133 265.751 160.994 266.995 163.041 267.843C165.089 268.692 167.284 269.128 169.5 269.128C171.716 269.128 173.911 268.692 175.959 267.843C178.006 266.995 179.867 265.751 181.434 264.184L176.662 259.412L176.655 259.405ZM162.345 245.095C164.243 243.199 166.817 242.134 169.5 242.134C172.183 242.134 174.757 243.199 176.655 245.095L181.434 240.316C179.867 238.749 178.006 237.505 175.959 236.657C173.911 235.808 171.716 235.372 169.5 235.372C167.284 235.372 165.089 235.808 163.041 236.657C160.994 237.505 159.133 238.749 157.566 240.316L162.338 245.088L162.345 245.095ZM257.655 245.095C259.639 247.066 260.625 249.651 260.625 252.25H267.375C267.375 247.937 265.728 243.61 262.434 240.316L257.662 245.088L257.655 245.095ZM260.625 252.25C260.625 254.849 259.639 257.434 257.655 259.405L262.434 264.184C264.003 262.618 265.247 260.758 266.095 258.71C266.942 256.662 267.378 254.467 267.375 252.25H260.625ZM237 248.875H216.75V255.625H237V248.875ZM243.345 259.405C242.403 258.467 241.655 257.352 241.146 256.124C240.636 254.896 240.374 253.58 240.375 252.25H233.625C233.625 256.563 235.272 260.89 238.566 264.184L243.338 259.412L243.345 259.405ZM240.375 252.25C240.375 249.651 241.361 247.066 243.345 245.095L238.566 240.316C236.997 241.882 235.753 243.742 234.905 245.79C234.058 247.838 233.622 250.033 233.625 252.25H240.375ZM162.345 259.405C161.403 258.467 160.655 257.352 160.146 256.124C159.636 254.896 159.374 253.58 159.375 252.25H152.625C152.625 256.563 154.272 260.89 157.566 264.184L162.338 259.412L162.345 259.405ZM159.375 252.25C159.375 249.651 160.361 247.066 162.345 245.095L157.566 240.316C155.997 241.882 154.753 243.742 153.905 245.79C153.058 247.838 152.622 250.033 152.625 252.25H159.375ZM216.75 248.875H183V255.625H216.75V248.875ZM176.655 245.095C178.639 247.066 179.625 249.651 179.625 252.25H186.375C186.375 247.937 184.728 243.61 181.434 240.316L176.662 245.088L176.655 245.095ZM179.625 252.25C179.625 254.849 178.639 257.434 176.655 259.405L181.434 264.184C183.003 262.618 184.247 260.758 185.095 258.71C185.942 256.662 186.378 254.467 186.375 252.25H179.625ZM274.125 238.75C274.125 241.435 273.058 244.011 271.159 245.909C269.261 247.808 266.685 248.875 264 248.875V255.625C268.476 255.625 272.768 253.847 275.932 250.682C279.097 247.518 280.875 243.226 280.875 238.75H274.125ZM250.5 188.125C256.766 188.125 262.775 190.614 267.205 195.045C271.636 199.475 274.125 205.484 274.125 211.75H280.875C280.875 203.694 277.675 195.968 271.978 190.272C266.282 184.575 258.556 181.375 250.5 181.375V188.125ZM139.125 238.75C139.125 243.226 140.903 247.518 144.068 250.682C147.232 253.847 151.524 255.625 156 255.625V248.875C153.315 248.875 150.739 247.808 148.841 245.909C146.942 244.011 145.875 241.435 145.875 238.75H139.125Z" fill="white"/>
<path d="M179.625 162.5C179.625 157.129 177.492 151.979 173.694 148.181C169.896 144.383 164.746 142.25 159.375 142.25C157.585 142.25 155.868 142.961 154.602 144.227C153.336 145.493 152.625 147.21 152.625 149C152.625 154.371 154.758 159.521 158.556 163.319C162.354 167.117 167.504 169.25 172.875 169.25H179.625M179.625 162.5V169.25M179.625 162.5C179.625 157.129 181.758 151.979 185.556 148.181C189.354 144.383 194.504 142.25 199.875 142.25C201.665 142.25 203.382 142.961 204.648 144.227C205.914 145.493 206.625 147.21 206.625 149C206.625 154.371 204.492 159.521 200.694 163.319C196.896 167.117 191.746 169.25 186.375 169.25H179.625" stroke="white" stroke-width="7" stroke-linejoin="round"/>
<defs>
<filter id="filter0_f_272_36" x="0" y="0" width="419" height="409.782" filterUnits="userSpaceOnUse" color-interpolation-filters="sRGB">
<feFlood flood-opacity="0" result="BackgroundImageFix"/>
<feBlend mode="normal" in="SourceGraphic" in2="BackgroundImageFix" result="shape"/>
<feGaussianBlur stdDeviation="44" result="effect1_foregroundBlur_272_36"/>
</filter>
</defs>
</svg>
