<svg width="1761" height="525" viewBox="0 0 1761 525" fill="none" xmlns="http://www.w3.org/2000/svg">
<g filter="url(#filter0_f_329_454)">
<path d="M100 140C100 117.909 117.909 100 140 100H385C407.091 100 425 117.909 425 140V385C425 407.091 407.091 425 385 425H140C117.909 425 100 407.091 100 385V140Z" fill="#9D3D67" fill-opacity="0.68"/>
</g>
<g filter="url(#filter1_f_329_454)">
<path d="M512 140C512 117.909 529.909 100 552 100H797C819.091 100 837 117.909 837 140V385C837 407.091 819.091 425 797 425H552C529.909 425 512 407.091 512 385V140Z" fill="#9D3D67" fill-opacity="0.68"/>
</g>
<g filter="url(#filter2_f_329_454)">
<path d="M924 140C924 117.909 941.909 100 964 100H1209C1231.09 100 1249 117.909 1249 140V385C1249 407.091 1231.09 425 1209 425H964C941.909 425 924 407.091 924 385V140Z" fill="#9D3D67" fill-opacity="0.68"/>
</g>
<g filter="url(#filter3_f_329_454)">
<path d="M1336 140C1336 117.909 1353.91 100 1376 100H1621C1643.09 100 1661 117.909 1661 140V385C1661 407.091 1643.09 425 1621 425H1376C1353.91 425 1336 407.091 1336 385V140Z" fill="#9D3D67" fill-opacity="0.68"/>
</g>
<defs>
<filter id="filter0_f_329_454" x="0" y="0" width="525" height="525" filterUnits="userSpaceOnUse" color-interpolation-filters="sRGB">
<feFlood flood-opacity="0" result="BackgroundImageFix"/>
<feBlend mode="normal" in="SourceGraphic" in2="BackgroundImageFix" result="shape"/>
<feGaussianBlur stdDeviation="50" result="effect1_foregroundBlur_329_454"/>
</filter>
<filter id="filter1_f_329_454" x="412" y="0" width="525" height="525" filterUnits="userSpaceOnUse" color-interpolation-filters="sRGB">
<feFlood flood-opacity="0" result="BackgroundImageFix"/>
<feBlend mode="normal" in="SourceGraphic" in2="BackgroundImageFix" result="shape"/>
<feGaussianBlur stdDeviation="50" result="effect1_foregroundBlur_329_454"/>
</filter>
<filter id="filter2_f_329_454" x="824" y="0" width="525" height="525" filterUnits="userSpaceOnUse" color-interpolation-filters="sRGB">
<feFlood flood-opacity="0" result="BackgroundImageFix"/>
<feBlend mode="normal" in="SourceGraphic" in2="BackgroundImageFix" result="shape"/>
<feGaussianBlur stdDeviation="50" result="effect1_foregroundBlur_329_454"/>
</filter>
<filter id="filter3_f_329_454" x="1236" y="0" width="525" height="525" filterUnits="userSpaceOnUse" color-interpolation-filters="sRGB">
<feFlood flood-opacity="0" result="BackgroundImageFix"/>
<feBlend mode="normal" in="SourceGraphic" in2="BackgroundImageFix" result="shape"/>
<feGaussianBlur stdDeviation="50" result="effect1_foregroundBlur_329_454"/>
</filter>
</defs>
</svg>
