<svg width="419" height="410" viewBox="0 0 419 410" fill="none" xmlns="http://www.w3.org/2000/svg">
<g filter="url(#filter0_f_272_34)">
<path d="M88 128C88 105.909 105.909 88 128 88H291C313.091 88 331 105.909 331 128V281.782C331 303.873 313.091 321.782 291 321.782H128C105.909 321.782 88 303.873 88 281.782V128Z" fill="#9D3D67" fill-opacity="0.5"/>
</g>
<path fill-rule="evenodd" clip-rule="evenodd" d="M225.373 208.001C224.442 205.369 222.718 203.09 220.438 201.478C218.158 199.866 215.435 199 212.643 199V195.625H205.893V199C202.312 199 198.878 200.422 196.347 202.954C193.815 205.486 192.393 208.92 192.393 212.5C192.393 216.08 193.815 219.514 196.347 222.046C198.878 224.578 202.312 226 205.893 226V239.5C202.956 239.5 200.455 237.627 199.524 235.001C199.386 234.572 199.163 234.174 198.868 233.832C198.574 233.49 198.214 233.211 197.809 233.01C197.405 232.81 196.965 232.693 196.514 232.666C196.064 232.639 195.612 232.702 195.187 232.853C194.761 233.003 194.37 233.237 194.037 233.541C193.703 233.845 193.434 234.213 193.246 234.623C193.057 235.033 192.952 235.476 192.938 235.927C192.923 236.378 193 236.828 193.162 237.249C194.093 239.881 195.817 242.16 198.097 243.772C200.377 245.384 203.1 246.25 205.893 246.25V249.625H212.643V246.25C216.223 246.25 219.657 244.828 222.189 242.296C224.72 239.764 226.143 236.33 226.143 232.75C226.143 229.17 224.72 225.736 222.189 223.204C219.657 220.672 216.223 219.25 212.643 219.25V205.75C214.039 205.75 215.4 206.182 216.54 206.988C217.68 207.794 218.542 208.933 219.008 210.249C219.306 211.093 219.927 211.784 220.735 212.17C221.135 212.361 221.568 212.472 222.011 212.495C222.453 212.519 222.896 212.455 223.314 212.308C223.732 212.16 224.117 211.932 224.447 211.635C224.776 211.339 225.044 210.981 225.236 210.581C225.427 210.181 225.537 209.747 225.561 209.305C225.584 208.862 225.521 208.419 225.373 208.001ZM205.893 205.75C204.102 205.75 202.385 206.461 201.12 207.727C199.854 208.993 199.143 210.71 199.143 212.5C199.143 214.29 199.854 216.007 201.12 217.273C202.385 218.539 204.102 219.25 205.893 219.25V205.75ZM212.643 239.5C214.433 239.5 216.15 238.789 217.416 237.523C218.681 236.257 219.393 234.54 219.393 232.75C219.393 230.96 218.681 229.243 217.416 227.977C216.15 226.711 214.433 226 212.643 226V239.5Z" fill="white"/>
<path fill-rule="evenodd" clip-rule="evenodd" d="M172.659 153.846C180.941 149.793 194.529 145 209.399 145C223.959 145 237.189 149.593 245.427 153.593L245.893 153.819C248.377 155.047 250.382 156.208 251.793 157.15L239.325 175.375C268.067 204.758 290.268 266.49 209.399 266.49C128.531 266.49 150.134 205.878 179.125 175.375L166.739 157.15C167.694 156.526 168.906 155.8 170.35 155.031C171.066 154.646 171.835 154.248 172.659 153.846ZM231.313 175.132L241.293 160.542C232.012 161.21 220.969 163.39 210.337 166.468C202.744 168.662 194.306 168.328 186.493 166.887C184.524 166.522 182.569 166.087 180.631 165.584L187.111 175.125C200.999 180.07 217.422 180.07 231.313 175.132ZM183.213 180.876C199.463 187.154 218.994 187.154 235.245 180.869C242.028 188.02 247.703 196.146 252.079 204.977C256.642 214.285 259.126 223.59 258.721 231.609C258.33 239.348 255.286 245.96 248.333 250.874C241.087 255.994 228.9 259.74 209.396 259.74C189.871 259.74 177.627 256.058 170.313 250.995C163.31 246.145 160.236 239.621 159.8 231.987C159.345 224.056 161.775 214.798 166.321 205.426C170.658 196.489 176.709 187.886 183.213 180.876ZM179.331 158.217C182.031 159.02 184.853 159.718 187.715 160.248C194.971 161.585 202.248 161.781 208.458 159.982C215.694 157.873 223.055 156.215 230.496 155.017C224.286 153.147 217.023 151.75 209.396 151.75C197.769 151.75 186.925 154.993 179.331 158.217Z" fill="white"/>
<defs>
<filter id="filter0_f_272_34" x="0" y="0" width="419" height="409.782" filterUnits="userSpaceOnUse" color-interpolation-filters="sRGB">
<feFlood flood-opacity="0" result="BackgroundImageFix"/>
<feBlend mode="normal" in="SourceGraphic" in2="BackgroundImageFix" result="shape"/>
<feGaussianBlur stdDeviation="44" result="effect1_foregroundBlur_272_34"/>
</filter>
</defs>
</svg>
