<svg width="14" height="8" viewBox="0 0 14 8" fill="none" xmlns="http://www.w3.org/2000/svg">
<path d="M1.18038 0.214987C1.11359 0.146313 1.03502 0.0926262 0.949163 0.0569904C0.863303 0.0213547 0.771833 0.0044679 0.679976 0.00729525C0.588118 0.0101226 0.497672 0.0326084 0.413801 0.0734684C0.32993 0.114328 0.254277 0.172763 0.191162 0.245435C0.128046 0.318107 0.078704 0.403594 0.0459523 0.497015C0.0132007 0.590435 -0.002319 0.68996 0.000279522 0.789906C0.00287804 0.889853 0.0235438 0.988264 0.0610969 1.07952C0.0986499 1.17078 0.152355 1.25309 0.219145 1.32177L6.51545 7.79193C6.64534 7.92555 6.81732 8 6.99607 8C7.17482 8 7.34679 7.92555 7.47669 7.79193L13.7737 1.32177C13.8419 1.25355 13.8971 1.17125 13.9358 1.07966C13.9746 0.988064 13.9963 0.889002 13.9996 0.788224C14.0029 0.687446 13.9877 0.58696 13.955 0.492605C13.9223 0.39825 13.8727 0.311905 13.8091 0.238586C13.7454 0.165267 13.669 0.106435 13.5843 0.0655087C13.4996 0.0245821 13.4083 0.0023762 13.3156 0.000180553C13.223 -0.00201509 13.1308 0.0158431 13.0446 0.0527185C12.9583 0.0895939 12.8797 0.144751 12.8132 0.214986L6.99607 6.1919L1.18038 0.214987Z" fill="white"/>
</svg>
