<svg width="27" height="30" viewBox="0 0 27 30" fill="none" xmlns="http://www.w3.org/2000/svg">
<path d="M20.25 9.30939V6.54932C20.25 5.68925 20.0754 4.8376 19.7362 4.043C19.397 3.2484 18.8998 2.52641 18.273 1.91825C17.6462 1.31009 16.9021 0.827671 16.0831 0.498537C15.2642 0.169403 14.3864 0 13.5 0C12.6136 0 11.7358 0.169403 10.9169 0.498537C10.0979 0.827671 9.35383 1.31009 8.72703 1.91825C8.10023 2.52641 7.60303 3.2484 7.26381 4.043C6.92459 4.8376 6.75 5.68925 6.75 6.54932V13.0986C6.75 13.3468 6.85159 13.5848 7.03243 13.7602C7.21327 13.9357 7.45854 14.0342 7.71429 14.0342C7.97003 14.0342 8.2153 13.9357 8.39614 13.7602C8.57698 13.5848 8.67857 13.3468 8.67857 13.0986V11.1806H16.3929V9.30939H8.67857V6.54932C8.67857 5.30861 9.18654 4.11872 10.0907 3.24141C10.9949 2.3641 12.2213 1.87123 13.5 1.87123C14.7787 1.87123 16.0051 2.3641 16.9093 3.24141C17.8135 4.11872 18.3214 5.30861 18.3214 6.54932V13.0519C18.3214 13.3 18.423 13.538 18.6039 13.7134C18.7847 13.8889 19.03 13.9875 19.2857 13.9875C19.5415 13.9875 19.7867 13.8889 19.9676 13.7134C20.1484 13.538 20.25 13.3 20.25 13.0519V11.1806H25.0714V28.0217H1.92857V11.1806H4.82143V9.30939H0V28.1059C0 28.5799 0.194045 29.0344 0.539446 29.3695C0.884848 29.7047 1.35331 29.893 1.84179 29.893H25.1582C25.6467 29.893 26.1152 29.7047 26.4606 29.3695C26.806 29.0344 27 28.5799 27 28.1059V9.30939H20.25Z" fill="white"/>
</svg>
