<svg width="28" height="24" viewBox="0 0 28 24" fill="none" xmlns="http://www.w3.org/2000/svg">
<path d="M26.2155 1.44434C27.0372 1.44434 27.6571 2.12454 27.3256 3.38971L23.3033 21.279C23.0222 22.551 22.2076 22.8571 21.0831 22.2653L11.4888 15.5789C11.4516 15.5537 11.4213 15.5205 11.4003 15.4821C11.3794 15.4437 11.3685 15.4011 11.3685 15.3579C11.3685 15.3147 11.3794 15.2721 11.4003 15.2336C11.4213 15.1952 11.4516 15.162 11.4888 15.1368L22.568 5.6956C23.0726 5.27387 22.4599 5.06981 21.7967 5.45072L7.8918 13.7288C7.84963 13.7547 7.80175 13.7713 7.75179 13.7772C7.70183 13.7831 7.65111 13.7782 7.60346 13.7628L1.69981 12.0011C0.387886 11.6406 0.387886 10.7903 1.99535 10.1849L25.6172 1.58718C25.8045 1.50237 26.0079 1.4538 26.2155 1.44434Z" stroke="white" stroke-width="1.11111" stroke-linecap="round" stroke-linejoin="round"/>
</svg>
